<?xml version="1.0" standalone="no"?><!DOCTYPE svg PUBLIC "-//W3C//DTD SVG 1.1//EN" "http://www.w3.org/Graphics/SVG/1.1/DTD/svg11.dtd"><svg t="1747817677043" class="icon" viewBox="0 0 1024 1024" version="1.1" xmlns="http://www.w3.org/2000/svg" p-id="30893" xmlns:xlink="http://www.w3.org/1999/xlink" width="200" height="200"><path d="M258.56 565.333333h-64v-320h64v320z m245.333333-320h-42.666666v320h42.666666v-320z m64 0h-42.666666v320h42.666666v-320z m197.12 0h-42.666666v320h42.666666v-320z m64 0h-42.666666v320h42.666666v-320z m-144.213333 0h-85.333333v320h85.333333v-320z m-256 0h-149.333333v320h149.333333v-320zM921.173333 213.333333v384c0 47.786667-37.973333 86.613333-84.906666 89.173334l-60.16 50.773333a89.6 89.6 0 0 1-51.2 162.986667H298.666667A89.6 89.6 0 0 1 209.066667 810.666667c0-30.293333 15.36-57.173333 38.4-73.386667l-60.16-50.773333A89.429333 89.429333 0 0 1 102.4 597.333333V213.333333c0-49.493333 40.106667-89.6 89.6-89.6h640c49.493333 0 89.6 40.106667 89.6 89.6zM153.6 597.333333c0 21.333333 17.066667 38.4 38.4 38.4h640c21.333333 0 38.4-17.066667 38.4-38.4V213.333333c0-21.333333-17.066667-38.4-38.4-38.4h-640c-21.333333 0-38.4 17.066667-38.4 38.4v384z m113.92 89.6l40.533333 34.133334h407.893334l40.533333-34.133334H267.52z m142.506667 162.133334l34.133333-76.8H298.666667c-21.333333 0-38.4 17.066667-38.4 38.4s17.066667 38.4 38.4 38.4h111.36z m148.053333 0l-34.133333-76.8h-23.466667l-34.133333 76.8h91.733333z m205.653333-38.4c0-21.333333-17.066667-38.4-38.4-38.4h-145.493333l34.133333 76.8H725.333333c21.333333 0 38.4-17.066667 38.4-38.4z" fill="#13227a" p-id="30894"></path></svg>